<?xml version="1.0" encoding="UTF-8"?>
<!DOCTYPE svg PUBLIC "-//W3C//DTD SVG 1.1//EN" "http://www.w3.org/Graphics/SVG/1.1/DTD/svg11.dtd">
<!-- Creator: CorelDRAW -->
<svg xmlns="http://www.w3.org/2000/svg" xml:space="preserve" width="0.0533307in" height="0.0533307in" version="1.1" style="shape-rendering:geometricPrecision; text-rendering:geometricPrecision; image-rendering:optimizeQuality; fill-rule:evenodd; clip-rule:evenodd"
viewBox="0 0 53.33 53.33"
 xmlns:xlink="http://www.w3.org/1999/xlink"
 xmlns:xodm="http://www.corel.com/coreldraw/odm/2003">
 <defs>
  <style type="text/css">
   <![CDATA[
    .fil0 {fill:none}
    .fil2 {fill:white}
    .fil1 {fill:url(#id0)}
   ]]>
  </style>
  <linearGradient id="id0" gradientUnits="userSpaceOnUse" x1="52.73" y1="16.83" x2="0.82" y2="33.11">
   <stop offset="0" style="stop-opacity:1; stop-color:#6699FF"/>
   <stop offset="1" style="stop-opacity:1; stop-color:#000066"/>
  </linearGradient>
 </defs>
 <g id="Layer_x0020_1">
  <metadata id="CorelCorpID_0Corel-Layer"/>
  <g id="_2679558445520">
   <rect class="fil0" width="53.33" height="53.33"/>
   <g>
    <rect class="fil1" x="1.05" y="7.38" width="51.23" height="38.56" rx="8.89" ry="7"/>
    <path class="fil2" d="M25.18 35.57c0.14,-0.01 0.07,0 0.17,-0.11 0.24,-0.3 0.45,-0.61 0.64,-0.96 0.04,-0.08 0.05,-0.06 0.06,-0.14 0.09,-0.06 0.02,0 0.09,-0.08l0.11 -0.21c0.3,-0.53 0.13,-0.33 0.26,-0.61 0.19,-0.4 0.2,-0.48 0.31,-0.96 0.2,-0.88 0.22,-1.39 0.18,-2.31 -0.05,-1.09 -0.3,-1.54 -0.63,-2.38 -0.23,-0.58 -0.4,-0.84 -0.78,-1.33l-0.4 -0.46c-0.07,-0.07 -0.13,-0.17 -0.2,-0.25 -0.08,-0.1 -0.11,-0.13 -0.19,-0.22 -0.23,-0.22 -0.85,-0.69 -0.89,-0.82 0.01,-0.25 0.26,-0.49 0.32,-0.77 0.07,-0.33 0.13,-0.32 0.22,-0.57 0.06,-0.16 0,-0.02 0.07,-0.16 0.05,-0.09 0.1,-0.46 0.15,-0.69l0.11 -1.16c-0.5,-0.12 -1.54,-0.04 -2.14,-0.05 -0.57,0 -1.65,-0.07 -2.17,0.01 -0.07,0.56 -0.02,0.75 -0.3,1.15 -0.12,0.17 -0.07,0.19 -0.31,0.41l-0.46 0.27c-0.38,0.16 -0.11,0.07 -0.54,0.17 -0.45,0.12 -5.57,0.07 -6.43,0.06 -0.13,0 -1.28,0.04 -1.36,-0.05 -0.11,-0.12 0,-1.12 -0.06,-1.39 -0.01,-0.07 -0.09,-0.2 -0.13,-0.25 -0.17,-0.23 -0.35,-0.37 -0.69,-0.39 -0.4,-0.02 -2.67,-0.03 -2.87,0.04 -0.2,0.07 -0.28,0.21 -0.41,0.31 -0.2,0.15 -0.17,0.23 -0.17,0.56l0 14.51c-0,1.64 -0.17,1.42 0.62,1.43l12.47 0.02c0.51,0 0.26,-0.01 0.53,-0.06 0.44,-0.08 0.84,-0.06 1.35,-0.19l1.04 -0.41c0.13,-0.07 0.25,-0.14 0.38,-0.2l0.36 -0.22c0.07,-0.06 0.12,-0.06 0.2,-0.11 0.14,-0.09 0.41,-0.28 0.48,-0.4 0.08,-0.01 0.23,-0.14 0.3,-0.2l0.53 -0.51c0.09,-0.11 0.19,-0.18 0.2,-0.32zm-3.87 -7.35c0.04,0.13 0.01,0.04 0.09,0.11 0,0.01 0.01,0.01 0.02,0.02l0.05 0.05c0.07,0.07 0.1,0.09 0.17,0.14 0.15,0.11 0.22,0.19 0.23,0.39 0.2,-0.06 0.1,-0.04 0.17,0.03l0.44 0.8c0,0.01 0,0.02 0.01,0.02l0.12 0.51c0.14,0.96 0.04,0.32 0,0.96 -0.02,0.27 -0.06,0.24 -0.11,0.43 -0.05,0.18 -0.06,0.22 -0.14,0.39l-0.25 0.44c-0.01,0.01 -0.03,0.03 -0.04,0.04 -0.11,0.14 -0.12,0.22 -0.31,0.38 -0,0 -0.01,0.01 -0.02,0.02l-0.93 0.59c-0.1,0.03 -0.15,0.01 -0.22,0.03 -0.14,0.04 0,0.04 -0.19,0.09 -0.05,0.02 -0.2,0.02 -0.25,0.03 -0.93,0.15 -1.6,0.09 -2.58,0.09 -1.05,0.01 -6.08,0.08 -6.41,-0.05 -0.06,-0.17 -0.07,-5.54 -0,-5.83 0.08,-0.06 -0.08,-0.01 0.14,-0.07l2.41 -0.02c0.85,-0 1.7,0 2.56,0 1.03,0 2.84,-0.04 3.8,0.03 0.52,0.03 0.79,0.3 1.05,0.28l0.21 0.08zm4.61 -12.95c-0.01,-0.01 -0.02,-0.03 -0.03,-0.02l-0.2 -0.1c-0.19,-0.06 -1.98,-0.03 -2.22,-0.02l-3.87 0c-0.24,0 -0.39,0.02 -0.59,0.03 -0.18,0.01 -0.45,-0.02 -0.66,-0.02l-10.22 0.07c-0.48,0.01 -0.78,-0.04 -1.08,0.21 -0.33,0.28 -0.29,0.52 -0.29,1.05 0,0.23 -0.03,2.02 0.03,2.2l0.13 0.35c0,0.01 0.02,0.04 0.02,0.05 0.06,0.11 0.36,0.33 0.39,0.35 0.41,0.19 10.8,0.11 11.85,0.11 0.85,0 1.7,0 2.56,0 0.83,0 1.79,0.05 2.6,-0 0.14,0.02 0.09,0.08 0.28,0.15 0.04,0.11 0.31,0.22 0.52,0.39 0.07,0.06 0.11,0.08 0.17,0.14 0.13,0.11 0.23,0.21 0.33,0.3 0.11,0.1 0.26,0.19 0.37,0.28l1.79 1.39c0.36,0.22 0.23,0.17 0.47,0.37l0.7 0.54c0.01,0 0.02,0.01 0.02,0.02 0.18,0.13 0.35,0.22 0.5,0.41l0.13 0.09c0.01,0 0.02,0.01 0.02,0.01l1.64 1.24c0,0 0.01,0.01 0.02,0.01l0.06 0.04c0.44,0.3 1.14,0.89 1.48,1.11l1 0.8c0,0 0.01,0.01 0.02,0.02 0.15,0.16 0.04,0.09 0.28,0.22 0.01,0 0.02,0.01 0.02,0.02l0.29 0.2c0.1,0.07 0.09,0.08 0.19,0.16 0.07,0.07 0.1,0.07 0.19,0.13 0.07,0.06 0.11,0.09 0.17,0.14l0.55 0.41c0.52,0.4 0.57,0.58 0.98,0.15l0.08 -0.08c0.1,-0.08 0.09,-0.01 0.16,-0.15 0.05,-0 0.02,-0 0.07,-0.03l1.45 -1.11c0.05,-0.04 0.08,-0.06 0.14,-0.11 0.22,-0.2 0.25,-0.16 0.38,-0.28 0.28,-0.27 0.17,-0.11 0.5,-0.4l1.29 -0.96c0.18,-0.12 0.19,-0.11 0.2,-0.19 0.14,-0.03 1.08,-0.79 1.28,-0.95 0.11,-0.08 0.05,-0.08 0.22,-0.09 0.04,0.55 0.01,2.86 0.01,3.59 0,1.39 -0.04,10.57 0.03,10.65 0.08,0.09 2.96,0.04 3.21,0.04 1.36,0 1.06,0.22 1.07,-1.22l0 -3.56c-0,-5.52 0.02,-11.07 0,-16.59 0,-0.34 -0.14,-0.55 -0.43,-0.74 -0.26,-0.16 -0.67,-0.15 -0.92,0.01l-0.22 0.17c-0.01,0 -0.02,0.01 -0.02,0.01l-0.57 0.46c-0,0 -0.01,0.01 -0.02,0.01 -0,0.01 -0.01,0.01 -0.02,0.02l-0.8 0.65c-0.23,0.16 -0.49,0.3 -0.67,0.51 -0.22,0.27 -0.54,0.33 -0.7,0.52 -0.11,0.13 -0.49,0.37 -0.67,0.5 -0.13,0.09 -0.19,0.18 -0.3,0.28l-0.51 0.39c-0.11,0.07 -0.07,0.05 -0.16,0.12l-1.02 0.78c-0.11,0.09 -0.22,0.17 -0.34,0.25 -0.08,0.05 -0.1,0.08 -0.18,0.13 -0.1,0.07 -0.07,0.05 -0.15,0.12l-1 0.77c-0.1,0.07 -0.59,0.44 -0.65,0.56 -0.04,0.01 -0.02,0 -0.08,0.03 -0,0 -0.08,0.06 -0.08,0.06 -0.16,0.12 -0.86,0.69 -0.96,0.72l-1.27 -0.97c-0.23,-0.19 -0.44,-0.3 -0.65,-0.5l-0.24 -0.2c-0.01,-0.01 -0.02,-0.01 -0.02,-0.02 -0.41,-0.32 -0.44,-0.25 -1,-0.77 -0.04,-0.04 0.01,-0.01 -0.07,-0.06 -0.06,-0.04 -0.04,-0.03 -0.08,-0.06l-0.79 -0.59c-0.12,-0.09 -0.2,-0.13 -0.32,-0.24l-1.28 -0.96c-0.11,-0.08 -0.2,-0.15 -0.31,-0.24 -0.05,-0.04 -0.09,-0.08 -0.15,-0.13 -0.07,-0.05 -0.09,-0.07 -0.15,-0.12 -0.06,-0.05 -0.09,-0.08 -0.15,-0.12 -0.26,-0.17 -0.19,-0.16 -0.3,-0.25 -0.05,-0.04 -0.12,-0.07 -0.17,-0.11 -0.22,-0.16 -0.41,-0.31 -0.62,-0.48 -0.56,-0.46 -0.76,-0.57 -1.28,-0.97l-0.56 -0.41c-0.13,-0.11 -0.56,-0.51 -0.69,-0.52 -0.05,-0.09 0.01,-0.02 -0.07,-0.1 -0.04,-0.04 -0.05,-0.04 -0.06,-0.05z"/>
   </g>
  </g>
 </g>
</svg>
